<svg xmlns="http://www.w3.org/2000/svg" x="0px" y="0px"
      width="50" height="50"
      viewBox="0 0 172 172"
      style=" fill:#000000;"><g transform=""><g fill="none" fill-rule="nonzero" stroke="none" stroke-width="1" stroke-linecap="butt" stroke-linejoin="miter" stroke-miterlimit="10" stroke-dasharray="" stroke-dashoffset="0" font-family="none" font-weight="none" font-size="none" text-anchor="none" style="mix-blend-mode: normal"><path d="M0,172v-172h172v172z" fill="#ffffff"></path><g fill="#e74c3c"><path d="M35.088,167.184c-0.688,0 -1.376,-0.344 -2.064,-0.688c-1.032,-0.688 -1.72,-2.408 -1.376,-3.784l15.136,-56.416l-45.408,-36.808c-1.376,-0.688 -1.72,-2.408 -1.376,-3.784c0.344,-1.376 1.72,-2.408 3.096,-2.408l58.48,-3.096l20.984,-54.696c0.688,-1.032 2.064,-2.064 3.44,-2.064c1.376,0 2.752,1.032 3.096,2.064l20.984,54.696l58.48,3.096c1.376,0 2.752,1.032 3.096,2.408c0.344,1.376 0,2.752 -1.032,3.784l-45.408,36.808l15.136,56.416c0.344,1.376 0,2.752 -1.376,3.784c-1.032,0.688 -2.752,1.032 -3.784,0l-49.192,-31.648l-49.192,31.648c-0.688,0.688 -1.032,0.688 -1.72,0.688z"></path></g><path d="" fill="none"></path><path d="" fill="none"></path></g></g></svg>
